<svg version="1.1" id="Layer_1" xmlns="http://www.w3.org/2000/svg" xmlns:xlink="http://www.w3.org/1999/xlink" x="0px" y="0px"
	 width="100%" viewBox="0 0 500 500" enable-background="new 0 0 500 500" xml:space="preserve">
<path fill="#000000" opacity="1.000000" stroke="none" 
	d="
M237.000000,501.000000 
	C158.000015,501.000000 79.500038,501.000000 1.000042,501.000000 
	C1.000028,334.333405 1.000028,167.666779 1.000014,1.000132 
	C167.666565,1.000088 334.333130,1.000088 500.999756,1.000044 
	C500.999847,167.666519 500.999847,334.333038 500.999939,500.999786 
	C413.166656,501.000000 325.333344,501.000000 237.000000,501.000000 
M315.563599,199.801224 
	C305.349457,186.245499 295.189209,172.648346 284.844727,159.192825 
	C283.706940,157.712830 281.519470,156.148926 279.808075,156.136765 
	C259.839417,155.994812 239.868668,156.143188 219.272400,156.368866 
	C208.415421,170.893600 197.558441,185.418335 185.810089,200.078491 
	C174.637604,200.078491 163.465103,200.078491 151.271103,200.078491 
	C157.525482,208.589050 163.075104,216.140610 168.091919,224.229309 
	C162.725372,231.424118 157.358826,238.618927 151.414078,246.588928 
	C163.653625,246.588928 174.716278,246.588928 186.255875,247.008850 
	C196.564713,260.672913 206.830750,274.369812 217.247910,287.950775 
	C218.302338,289.325439 220.263077,290.860779 221.812302,290.870514 
	C241.930237,290.996613 262.049805,290.860016 282.776978,290.591522 
	C293.683014,276.038544 304.589050,261.485596 316.361938,246.794418 
	C327.404449,246.794418 338.446960,246.794418 350.585083,246.794418 
	C344.327759,238.233826 338.873596,230.772018 333.925079,222.734741 
	C339.366241,215.433243 344.807434,208.131760 350.689117,200.239182 
	C338.330048,200.239182 327.220184,200.239182 315.563599,199.801224 
M277.693207,322.001862 
	C280.676666,319.266205 281.498199,315.430206 279.386688,312.557190 
	C277.716370,310.284454 274.146027,308.978668 271.170441,308.219238 
	C268.369598,307.504395 265.243011,308.065918 262.048584,308.065918 
	C262.048584,315.461151 262.048584,322.563721 262.048584,329.707092 
	C264.098450,329.707092 266.011963,329.707092 267.907440,329.707092 
	C268.071808,327.651367 268.212372,325.893707 268.427124,323.208038 
	C272.526398,325.739380 273.621826,333.321259 280.141968,329.272461 
	C279.198059,327.155884 278.199371,324.916473 277.693207,322.001862 
M179.925339,321.939667 
	C180.938507,323.135162 182.191116,324.200745 182.922501,325.549072 
	C185.768997,330.796692 185.707489,330.830048 192.682236,329.066223 
	C185.578323,322.464447 187.810013,315.465790 191.955826,308.584991 
	C187.118118,307.124573 184.176407,307.989838 183.025208,312.954468 
	C182.715729,314.289124 180.784851,315.247803 178.635544,317.296936 
	C178.424759,313.054230 178.305511,310.653931 178.187714,308.282837 
	C175.935791,308.282837 174.177322,308.282837 172.252167,308.282837 
	C172.252167,315.581665 172.252167,322.648682 172.252167,329.683594 
	C174.382828,329.683594 176.253815,329.683594 177.988800,329.683594 
	C178.386063,326.940277 178.733749,324.539246 179.925339,321.939667 
M214.302383,322.227631 
	C212.974197,322.854828 211.518707,324.129974 210.358566,323.902039 
	C209.447830,323.723083 208.372375,321.720154 208.291840,320.468231 
	C208.030869,316.411102 208.194366,312.326660 208.194366,308.317841 
	C205.732681,308.317841 203.981720,308.317841 201.983536,308.317841 
	C201.983536,313.206299 201.755325,317.849213 202.045380,322.459473 
	C202.358353,327.433746 205.887863,330.337433 211.117661,330.493591 
	C216.536407,330.655457 220.510254,327.694885 220.870667,322.630981 
	C221.209015,317.877350 220.943176,313.080688 220.943176,308.226288 
	C218.697388,308.226288 216.912277,308.226288 214.575562,308.226288 
	C214.575562,312.698700 214.575562,317.001434 214.302383,322.227631 
M156.212601,312.099854 
	C155.496353,309.897156 154.991867,307.284790 151.761597,308.105133 
	C150.251175,308.488678 148.115601,309.177673 147.617111,310.319305 
	C144.860672,316.632080 142.521332,323.127014 140.039062,329.559509 
	C140.327072,330.007263 140.615082,330.455017 140.903076,330.902771 
	C143.151642,329.851135 145.308929,328.403564 147.674225,327.858246 
	C150.077972,327.304108 152.783691,327.191681 155.178894,327.709869 
	C157.630920,328.240326 159.866760,329.770111 162.197235,330.862488 
	C162.457275,330.403259 162.717316,329.944061 162.977371,329.484863 
	C160.835800,323.925293 158.694229,318.365723 156.212601,312.099854 
M349.691864,308.045074 
	C348.691254,308.652588 347.142639,309.030914 346.777435,309.904175 
	C344.060883,316.399506 341.579132,322.993073 339.023682,329.555817 
	C339.347473,330.005005 339.671295,330.454193 339.995087,330.903381 
	C342.222717,329.840790 344.356293,328.367371 346.704132,327.829834 
	C349.104340,327.280304 351.808380,327.216339 354.207031,327.735809 
	C356.650635,328.265015 358.884277,329.763550 361.209869,330.837646 
	C361.460968,330.376160 361.712036,329.914642 361.963135,329.453125 
	C359.526733,323.119995 357.231873,316.725342 354.529236,310.507965 
	C354.015778,309.326721 351.887878,308.847229 349.691864,308.045074 
M248.034454,317.320618 
	C244.269302,307.735779 244.269302,307.735779 237.961365,308.419098 
	C235.267685,315.378052 232.531281,322.447418 229.794861,329.516815 
	C230.088379,329.965546 230.381912,330.414276 230.675430,330.863037 
	C232.883972,329.818665 235.000748,328.382812 237.326309,327.837708 
	C239.755295,327.268372 242.493057,327.070953 244.897385,327.604736 
	C247.356445,328.150757 249.574738,329.781189 251.898422,330.936951 
	C252.184753,330.478333 252.471085,330.019714 252.757416,329.561096 
	C251.264099,325.724945 249.770767,321.888763 248.034454,317.320618 
M290.821442,326.101898 
	C290.931213,327.349274 291.041016,328.596619 291.147217,329.803284 
	C296.269104,329.803284 301.031036,329.803284 305.958801,329.803284 
	C305.958801,328.152466 305.958801,326.714752 305.958801,324.920013 
	C303.016937,324.920013 300.226166,324.920013 296.929535,324.920013 
	C297.764252,319.102356 302.667206,323.241058 304.961121,320.534241 
	C304.902832,319.583649 304.808563,318.046722 304.738800,316.909088 
	C302.155914,315.212494 298.142822,318.079681 296.590179,313.184937 
	C300.184845,313.184937 302.826508,313.184937 305.895203,313.184937 
	C305.806671,311.347809 305.733063,309.820831 305.654541,308.191467 
	C300.569702,308.191467 295.941132,308.191467 290.821289,308.191467 
	C290.821289,313.941986 290.821289,319.559692 290.821442,326.101898 
M330.885040,329.851471 
	C331.191040,328.068848 331.497040,326.286224 331.914307,323.855469 
	C328.333984,323.855469 325.627655,323.855469 322.615356,323.855469 
	C322.615356,318.384338 322.615356,313.460175 322.615356,308.296021 
	C320.402069,308.296021 318.517975,308.296021 316.427368,308.296021 
	C316.427368,315.566467 316.427368,322.588318 316.427368,330.004333 
	C321.125427,330.004333 325.559174,330.004333 330.885040,329.851471 
z"/>
<path fill="#4DA3DF" opacity="1.000000" stroke="none" 
	d="
M282.168976,290.789612 
	C262.049805,290.860016 241.930237,290.996613 221.812302,290.870514 
	C220.263077,290.860779 218.302338,289.325439 217.247910,287.950775 
	C206.830750,274.369812 196.564713,260.672913 185.845917,246.480438 
	C179.832214,238.532059 174.228470,231.112106 168.624725,223.692139 
	C163.075104,216.140610 157.525482,208.589050 151.271103,200.078491 
	C163.465103,200.078491 174.637604,200.078491 186.738541,200.093842 
	C195.148041,200.126587 202.642700,199.897736 210.101883,200.310410 
	C212.359680,200.435333 215.156128,201.798538 216.609833,203.520065 
	C221.955750,209.850861 226.841354,216.570358 232.003555,223.463974 
	C238.405853,232.038895 244.704758,240.293442 251.121414,248.839783 
	C261.549103,263.017609 271.859039,276.903595 282.168976,290.789612 
z"/>
<path fill="#723FA2" opacity="1.000000" stroke="none" 
	d="
M219.898483,156.214783 
	C239.868668,156.143188 259.839417,155.994812 279.808075,156.136765 
	C281.519470,156.148926 283.706940,157.712830 284.844727,159.192825 
	C295.189209,172.648346 305.349457,186.245499 315.984985,200.306778 
	C322.077393,208.311630 327.748413,215.810913 333.419464,223.310211 
	C338.873596,230.772018 344.327759,238.233826 350.585083,246.794418 
	C338.446960,246.794418 327.404449,246.794418 315.437927,246.743561 
	C307.190369,246.666473 299.861694,246.469070 292.545532,246.688171 
	C289.030792,246.793442 286.734528,245.749023 284.642700,242.821976 
	C280.012482,236.342926 274.967468,230.160263 269.971283,223.543030 
	C263.556183,214.969727 257.261414,206.710114 250.835022,198.166779 
	C240.435104,183.993607 230.166794,170.104202 219.898483,156.214783 
z"/>
<path fill="#F0EC12" opacity="1.000000" stroke="none" 
	d="
M270.091614,223.856720 
	C274.967468,230.160263 280.012482,236.342926 284.642700,242.821976 
	C286.734528,245.749023 289.030792,246.793442 292.545532,246.688171 
	C299.861694,246.469070 307.190369,246.666473 315.004456,246.812653 
	C304.589050,261.485596 293.683014,276.038544 282.472961,290.690552 
	C271.859039,276.903595 261.549103,263.017609 251.420624,248.637726 
	C257.765259,240.048157 263.928436,231.952423 270.091614,223.856720 
z"/>
<path fill="#EC217F" opacity="1.000000" stroke="none" 
	d="
M219.585449,156.291824 
	C230.166794,170.104202 240.435104,183.993607 250.533112,198.364441 
	C244.208572,206.945099 238.054352,215.044342 231.900146,223.143585 
	C226.841354,216.570358 221.955750,209.850861 216.609833,203.520065 
	C215.156128,201.798538 212.359680,200.435333 210.101883,200.310410 
	C202.642700,199.897736 195.148041,200.126587 187.184219,200.026123 
	C197.558441,185.418335 208.415421,170.893600 219.585449,156.291824 
z"/>
<path fill="#EBE70F" opacity="1.000000" stroke="none" 
	d="
M333.672272,223.022476 
	C327.748413,215.810913 322.077393,208.311630 316.258301,200.525757 
	C327.220184,200.239182 338.330048,200.239182 350.689117,200.239182 
	C344.807434,208.131760 339.366241,215.433243 333.672272,223.022476 
z"/>
<path fill="#E2207A" opacity="1.000000" stroke="none" 
	d="
M168.358337,223.960724 
	C174.228470,231.112106 179.832214,238.532059 185.607452,246.270477 
	C174.716278,246.588928 163.653625,246.588928 151.414078,246.588928 
	C157.358826,238.618927 162.725372,231.424118 168.358337,223.960724 
z"/>
<path fill="#F0EC12" opacity="1.000000" stroke="none" 
	d="
M277.446960,322.339478 
	C278.199371,324.916473 279.198059,327.155884 280.141968,329.272461 
	C273.621826,333.321259 272.526398,325.739380 268.427124,323.208038 
	C268.212372,325.893707 268.071808,327.651367 267.907440,329.707092 
	C266.011963,329.707092 264.098450,329.707092 262.048584,329.707092 
	C262.048584,322.563721 262.048584,315.461151 262.048584,308.065918 
	C265.243011,308.065918 268.369598,307.504395 271.170441,308.219238 
	C274.146027,308.978668 277.716370,310.284454 279.386688,312.557190 
	C281.498199,315.430206 280.676666,319.266205 277.446960,322.339478 
M272.543884,318.222473 
	C272.908142,317.101959 273.791107,315.146057 273.551849,314.997498 
	C272.076141,314.081238 270.347443,313.572388 268.219452,312.738708 
	C268.074890,316.413788 266.752228,319.774231 272.543884,318.222473 
z"/>
<path fill="#EBE70F" opacity="1.000000" stroke="none" 
	d="
M179.503387,322.038940 
	C178.733749,324.539246 178.386063,326.940277 177.988800,329.683594 
	C176.253815,329.683594 174.382828,329.683594 172.252167,329.683594 
	C172.252167,322.648682 172.252167,315.581665 172.252167,308.282837 
	C174.177322,308.282837 175.935791,308.282837 178.187714,308.282837 
	C178.305511,310.653931 178.424759,313.054230 178.635544,317.296936 
	C180.784851,315.247803 182.715729,314.289124 183.025208,312.954468 
	C184.176407,307.989838 187.118118,307.124573 191.955826,308.584991 
	C187.810013,315.465790 185.578323,322.464447 192.682236,329.066223 
	C185.707489,330.830048 185.768997,330.796692 182.922501,325.549072 
	C182.191116,324.200745 180.938507,323.135162 179.503387,322.038940 
z"/>
<path fill="#EBE70F" opacity="1.000000" stroke="none" 
	d="
M214.438965,321.765869 
	C214.575562,317.001434 214.575562,312.698700 214.575562,308.226288 
	C216.912277,308.226288 218.697388,308.226288 220.943176,308.226288 
	C220.943176,313.080688 221.209015,317.877350 220.870667,322.630981 
	C220.510254,327.694885 216.536407,330.655457 211.117661,330.493591 
	C205.887863,330.337433 202.358353,327.433746 202.045380,322.459473 
	C201.755325,317.849213 201.983536,313.206299 201.983536,308.317841 
	C203.981720,308.317841 205.732681,308.317841 208.194366,308.317841 
	C208.194366,312.326660 208.030869,316.411102 208.291840,320.468231 
	C208.372375,321.720154 209.447830,323.723083 210.358566,323.902039 
	C211.518707,324.129974 212.974197,322.854828 214.438965,321.765869 
z"/>
<path fill="#E8E40F" opacity="1.000000" stroke="none" 
	d="
M156.382629,312.453003 
	C158.694229,318.365723 160.835800,323.925293 162.977371,329.484863 
	C162.717316,329.944061 162.457275,330.403259 162.197235,330.862488 
	C159.866760,329.770111 157.630920,328.240326 155.178894,327.709869 
	C152.783691,327.191681 150.077972,327.304108 147.674225,327.858246 
	C145.308929,328.403564 143.151642,329.851135 140.903076,330.902771 
	C140.615082,330.455017 140.327072,330.007263 140.039062,329.559509 
	C142.521332,323.127014 144.860672,316.632080 147.617111,310.319305 
	C148.115601,309.177673 150.251175,308.488678 151.761597,308.105133 
	C154.991867,307.284790 155.496353,309.897156 156.382629,312.453003 
z"/>
<path fill="#E8E40F" opacity="1.000000" stroke="none" 
	d="
M350.098389,308.044495 
	C351.887878,308.847229 354.015778,309.326721 354.529236,310.507965 
	C357.231873,316.725342 359.526733,323.119995 361.963135,329.453125 
	C361.712036,329.914642 361.460968,330.376160 361.209869,330.837646 
	C358.884277,329.763550 356.650635,328.265015 354.207031,327.735809 
	C351.808380,327.216339 349.104340,327.280304 346.704132,327.829834 
	C344.356293,328.367371 342.222717,329.840790 339.995087,330.903381 
	C339.671295,330.454193 339.347473,330.005005 339.023682,329.555817 
	C341.579132,322.993073 344.060883,316.399506 346.777435,309.904175 
	C347.142639,309.030914 348.691254,308.652588 350.098389,308.044495 
z"/>
<path fill="#E8E40F" opacity="1.000000" stroke="none" 
	d="
M248.155945,317.686615 
	C249.770767,321.888763 251.264099,325.724945 252.757416,329.561096 
	C252.471085,330.019714 252.184753,330.478333 251.898422,330.936951 
	C249.574738,329.781189 247.356445,328.150757 244.897385,327.604736 
	C242.493057,327.070953 239.755295,327.268372 237.326309,327.837708 
	C235.000748,328.382812 232.883972,329.818665 230.675430,330.863037 
	C230.381912,330.414276 230.088379,329.965546 229.794861,329.516815 
	C232.531281,322.447418 235.267685,315.378052 237.961365,308.419098 
	C244.269302,307.735779 244.269302,307.735779 248.155945,317.686615 
z"/>
<path fill="#EBE70F" opacity="1.000000" stroke="none" 
	d="
M290.821350,325.639648 
	C290.821289,319.559692 290.821289,313.941986 290.821289,308.191467 
	C295.941132,308.191467 300.569702,308.191467 305.654541,308.191467 
	C305.733063,309.820831 305.806671,311.347809 305.895203,313.184937 
	C302.826508,313.184937 300.184845,313.184937 296.590179,313.184937 
	C298.142822,318.079681 302.155914,315.212494 304.738800,316.909088 
	C304.808563,318.046722 304.902832,319.583649 304.961121,320.534241 
	C302.667206,323.241058 297.764252,319.102356 296.929535,324.920013 
	C300.226166,324.920013 303.016937,324.920013 305.958801,324.920013 
	C305.958801,326.714752 305.958801,328.152466 305.958801,329.803284 
	C301.031036,329.803284 296.269104,329.803284 291.147217,329.803284 
	C291.041016,328.596619 290.931213,327.349274 290.821350,325.639648 
z"/>
<path fill="#E8E40F" opacity="1.000000" stroke="none" 
	d="
M330.438965,329.927917 
	C325.559174,330.004333 321.125427,330.004333 316.427368,330.004333 
	C316.427368,322.588318 316.427368,315.566467 316.427368,308.296021 
	C318.517975,308.296021 320.402069,308.296021 322.615356,308.296021 
	C322.615356,313.460175 322.615356,318.384338 322.615356,323.855469 
	C325.627655,323.855469 328.333984,323.855469 331.914307,323.855469 
	C331.497040,326.286224 331.191040,328.068848 330.438965,329.927917 
z"/>
<path fill="#000000" opacity="1.000000" stroke="none" 
	d="
M232.003540,223.463959 
	C238.054352,215.044342 244.208572,206.945099 250.664703,198.648193 
	C257.261414,206.710114 263.556183,214.969727 269.971252,223.543015 
	C263.928436,231.952423 257.765259,240.048157 251.302856,248.345932 
	C244.704758,240.293442 238.405853,232.038895 232.003540,223.463959 
z"/>
<path fill="#000000" opacity="1.000000" stroke="none" 
	d="
M272.184204,318.378113 
	C266.752228,319.774231 268.074890,316.413788 268.219452,312.738708 
	C270.347443,313.572388 272.076141,314.081238 273.551849,314.997498 
	C273.791107,315.146057 272.908142,317.101959 272.184204,318.378113 
z"/>
</svg>